<?xml version="1.0" encoding="UTF-8" standalone="no"?>
<!DOCTYPE svg PUBLIC "-//W3C//DTD SVG 1.1//EN"
 "http://www.w3.org/Graphics/SVG/1.1/DTD/svg11.dtd">
<!-- Generated by graphviz version 2.36.0 (20140111.2315)
 -->
<!-- Title: G Pages: 1 -->
<svg width="660pt" height="798pt"
 viewBox="0.00 0.00 660.00 798.00" xmlns="http://www.w3.org/2000/svg" xmlns:xlink="http://www.w3.org/1999/xlink">
<g id="graph0" class="graph" transform="scale(1 1) rotate(0) translate(4 794)">
<title>G</title>
<polygon fill="white" stroke="none" points="-4,4 -4,-794 656,-794 656,4 -4,4"/>
<g id="clust1" class="cluster"><title>cluster_Global</title>
<path fill="none" stroke="gray" d="M290,-8C290,-8 632,-8 632,-8 638,-8 644,-14 644,-20 644,-20 644,-770 644,-770 644,-776 638,-782 632,-782 632,-782 290,-782 290,-782 284,-782 278,-776 278,-770 278,-770 278,-20 278,-20 278,-14 284,-8 290,-8"/>
<text text-anchor="middle" x="461" y="-769.2" font-family="Times,serif" font-size="11.00" fill="gray">Global</text>
</g>
<g id="clust2" class="cluster"><title>cluster_\vidsys</title>
<path fill="none" stroke="gray" d="M298,-16C298,-16 624,-16 624,-16 630,-16 636,-22 636,-28 636,-28 636,-742 636,-742 636,-748 630,-754 624,-754 624,-754 298,-754 298,-754 292,-754 286,-748 286,-742 286,-742 286,-28 286,-28 286,-22 292,-16 298,-16"/>
<text text-anchor="middle" x="461" y="-741.2" font-family="Times,serif" font-size="11.00" fill="gray">vidsys</text>
</g>
<g id="clust3" class="cluster"><title>cluster_\vidsys\Http</title>
<path fill="none" stroke="gray" d="M306,-24C306,-24 616,-24 616,-24 622,-24 628,-30 628,-36 628,-36 628,-714 628,-714 628,-720 622,-726 616,-726 616,-726 306,-726 306,-726 300,-726 294,-720 294,-714 294,-714 294,-36 294,-36 294,-30 300,-24 306,-24"/>
<text text-anchor="middle" x="461" y="-713.2" font-family="Times,serif" font-size="11.00" fill="gray">Http</text>
</g>
<g id="clust4" class="cluster"><title>cluster_\vidsys\Http\Controllers</title>
<path fill="none" stroke="gray" d="M314,-32C314,-32 608,-32 608,-32 614,-32 620,-38 620,-44 620,-44 620,-686 620,-686 620,-692 614,-698 608,-698 608,-698 314,-698 314,-698 308,-698 302,-692 302,-686 302,-686 302,-44 302,-44 302,-38 308,-32 314,-32"/>
<text text-anchor="middle" x="461" y="-685.2" font-family="Times,serif" font-size="11.00" fill="gray">Controllers</text>
</g>
<g id="clust5" class="cluster"><title>cluster_\vidsys\Http\Controllers\Auth</title>
<path fill="none" stroke="gray" d="M470,-544C470,-544 600,-544 600,-544 606,-544 612,-550 612,-556 612,-556 612,-658 612,-658 612,-664 606,-670 600,-670 600,-670 470,-670 470,-670 464,-670 458,-664 458,-658 458,-658 458,-556 458,-556 458,-550 464,-544 470,-544"/>
<text text-anchor="middle" x="535" y="-657.2" font-family="Times,serif" font-size="11.00" fill="gray">Auth</text>
</g>
<g id="clust6" class="cluster"><title>cluster_\vidsys\Http\Controllers\Universal</title>
<path fill="none" stroke="gray" d="M473,-194C473,-194 597,-194 597,-194 603,-194 609,-200 609,-206 609,-206 609,-524 609,-524 609,-530 603,-536 597,-536 597,-536 473,-536 473,-536 467,-536 461,-530 461,-524 461,-524 461,-206 461,-206 461,-200 467,-194 473,-194"/>
<text text-anchor="middle" x="535" y="-523.2" font-family="Times,serif" font-size="11.00" fill="gray">Universal</text>
</g>
<!-- \\vidsys\\Http\\Controllers\\Auth\\PasswordController -->
<g id="node1" class="node"><title>\\vidsys\\Http\\Controllers\\Auth\\PasswordController</title>
<polygon fill="none" stroke="black" points="604,-642 466,-642 466,-606 604,-606 604,-642"/>
<text text-anchor="middle" x="535" y="-621.2" font-family="Courier,monospace" font-size="11.00">PasswordController</text>
</g>
<!-- \\vidsys\\Http\\Controllers\\Controller -->
<g id="node12" class="node"><title>\\vidsys\\Http\\Controllers\\Controller</title>
<polygon fill="none" stroke="black" points="394,-346 310,-346 310,-310 394,-310 394,-346"/>
<text text-anchor="middle" x="352" y="-325.2" font-family="Courier,monospace" font-size="11.00">Controller</text>
</g>
<!-- \\vidsys\\Http\\Controllers\\Auth\\PasswordController&#45;&gt;\\vidsys\\Http\\Controllers\\Controller -->
<g id="edge1" class="edge"><title>\\vidsys\\Http\\Controllers\\Auth\\PasswordController&#45;&gt;\\vidsys\\Http\\Controllers\\Controller</title>
<path fill="none" stroke="black" d="M469.376,-605.779C465.268,-603.224 461.418,-600.314 458,-597 388.324,-529.437 363.982,-410.225 356.255,-356.118"/>
<polygon fill="none" stroke="black" points="359.723,-355.644 354.923,-346.199 352.785,-356.576 359.723,-355.644"/>
</g>
<!-- \\vidsys\\Http\\Controllers\\Auth\\AuthController -->
<g id="node2" class="node"><title>\\vidsys\\Http\\Controllers\\Auth\\AuthController</title>
<polygon fill="none" stroke="black" points="590.5,-588 479.5,-588 479.5,-552 590.5,-552 590.5,-588"/>
<text text-anchor="middle" x="535" y="-567.2" font-family="Courier,monospace" font-size="11.00">AuthController</text>
</g>
<!-- \\vidsys\\Http\\Controllers\\Auth\\AuthController&#45;&gt;\\vidsys\\Http\\Controllers\\Controller -->
<g id="edge11" class="edge"><title>\\vidsys\\Http\\Controllers\\Auth\\AuthController&#45;&gt;\\vidsys\\Http\\Controllers\\Controller</title>
<path fill="none" stroke="black" d="M479.195,-554.109C471.519,-550.312 464.161,-545.665 458,-540 402.018,-488.528 372.089,-400.612 359.811,-355.895"/>
<polygon fill="none" stroke="black" points="363.138,-354.785 357.194,-346.014 356.371,-356.577 363.138,-354.785"/>
</g>
<!-- \\vidsys\\Http\\Controllers\\Universal\\PublicController -->
<g id="node3" class="node"><title>\\vidsys\\Http\\Controllers\\Universal\\PublicController</title>
<polygon fill="none" stroke="black" points="597.5,-508 472.5,-508 472.5,-472 597.5,-472 597.5,-508"/>
<text text-anchor="middle" x="535" y="-487.2" font-family="Courier,monospace" font-size="11.00">PublicController</text>
</g>
<!-- \\vidsys\\Http\\Controllers\\Universal\\PublicController&#45;&gt;\\vidsys\\Http\\Controllers\\Controller -->
<g id="edge2" class="edge"><title>\\vidsys\\Http\\Controllers\\Universal\\PublicController&#45;&gt;\\vidsys\\Http\\Controllers\\Controller</title>
<path fill="none" stroke="black" d="M473.071,-471.969C467.766,-469.339 462.654,-466.362 458,-463 417.864,-434.009 385.465,-385.508 367.753,-355.213"/>
<polygon fill="none" stroke="black" points="370.738,-353.382 362.735,-346.438 364.661,-356.856 370.738,-353.382"/>
</g>
<!-- \\vidsys\\Http\\Controllers\\Universal\\VulnController -->
<g id="node4" class="node"><title>\\vidsys\\Http\\Controllers\\Universal\\VulnController</title>
<polygon fill="none" stroke="black" points="590.5,-454 479.5,-454 479.5,-418 590.5,-418 590.5,-454"/>
<text text-anchor="middle" x="535" y="-433.2" font-family="Courier,monospace" font-size="11.00">VulnController</text>
</g>
<!-- \\vidsys\\Http\\Controllers\\Universal\\VulnController&#45;&gt;\\vidsys\\Http\\Controllers\\Controller -->
<g id="edge4" class="edge"><title>\\vidsys\\Http\\Controllers\\Universal\\VulnController&#45;&gt;\\vidsys\\Http\\Controllers\\Controller</title>
<path fill="none" stroke="black" d="M479.118,-418.859C471.858,-415.914 464.638,-412.62 458,-409 429.449,-393.432 400.438,-370.384 380.168,-352.85"/>
<polygon fill="none" stroke="black" points="382.403,-350.155 372.579,-346.189 377.786,-355.416 382.403,-350.155"/>
</g>
<!-- \\vidsys\\Http\\Controllers\\Universal\\FileController -->
<g id="node5" class="node"><title>\\vidsys\\Http\\Controllers\\Universal\\FileController</title>
<polygon fill="none" stroke="black" points="590.5,-400 479.5,-400 479.5,-364 590.5,-364 590.5,-400"/>
<text text-anchor="middle" x="535" y="-379.2" font-family="Courier,monospace" font-size="11.00">FileController</text>
</g>
<!-- \\vidsys\\Http\\Controllers\\Universal\\FileController&#45;&gt;\\vidsys\\Http\\Controllers\\Controller -->
<g id="edge7" class="edge"><title>\\vidsys\\Http\\Controllers\\Universal\\FileController&#45;&gt;\\vidsys\\Http\\Controllers\\Controller</title>
<path fill="none" stroke="black" d="M479.203,-365.652C455.259,-358.508 427.343,-350.18 403.864,-343.175"/>
<polygon fill="none" stroke="black" points="404.681,-339.766 394.097,-340.261 402.679,-346.474 404.681,-339.766"/>
</g>
<!-- \\vidsys\\Http\\Controllers\\Universal\\ProductController -->
<g id="node6" class="node"><title>\\vidsys\\Http\\Controllers\\Universal\\ProductController</title>
<polygon fill="none" stroke="black" points="600.5,-346 469.5,-346 469.5,-310 600.5,-310 600.5,-346"/>
<text text-anchor="middle" x="535" y="-325.2" font-family="Courier,monospace" font-size="11.00">ProductController</text>
</g>
<!-- \\vidsys\\Http\\Controllers\\Universal\\ProductController&#45;&gt;\\vidsys\\Http\\Controllers\\Controller -->
<g id="edge8" class="edge"><title>\\vidsys\\Http\\Controllers\\Universal\\ProductController&#45;&gt;\\vidsys\\Http\\Controllers\\Controller</title>
<path fill="none" stroke="black" d="M469.421,-328C448.067,-328 424.61,-328 404.382,-328"/>
<polygon fill="none" stroke="black" points="404.126,-324.5 394.126,-328 404.126,-331.5 404.126,-324.5"/>
</g>
<!-- \\vidsys\\Http\\Controllers\\Universal\\CommentController -->
<g id="node7" class="node"><title>\\vidsys\\Http\\Controllers\\Universal\\CommentController</title>
<polygon fill="none" stroke="black" points="600.5,-292 469.5,-292 469.5,-256 600.5,-256 600.5,-292"/>
<text text-anchor="middle" x="535" y="-271.2" font-family="Courier,monospace" font-size="11.00">CommentController</text>
</g>
<!-- \\vidsys\\Http\\Controllers\\Universal\\CommentController&#45;&gt;\\vidsys\\Http\\Controllers\\Controller -->
<g id="edge10" class="edge"><title>\\vidsys\\Http\\Controllers\\Universal\\CommentController&#45;&gt;\\vidsys\\Http\\Controllers\\Controller</title>
<path fill="none" stroke="black" d="M473.478,-292.056C450.841,-298.81 425.384,-306.405 403.722,-312.867"/>
<polygon fill="none" stroke="black" points="402.642,-309.537 394.06,-315.75 404.643,-316.245 402.642,-309.537"/>
</g>
<!-- \\vidsys\\Http\\Controllers\\Universal\\ProfileController -->
<g id="node8" class="node"><title>\\vidsys\\Http\\Controllers\\Universal\\ProfileController</title>
<polygon fill="none" stroke="black" points="600.5,-238 469.5,-238 469.5,-202 600.5,-202 600.5,-238"/>
<text text-anchor="middle" x="535" y="-217.2" font-family="Courier,monospace" font-size="11.00">ProfileController</text>
</g>
<!-- \\vidsys\\Http\\Controllers\\Universal\\ProfileController&#45;&gt;\\vidsys\\Http\\Controllers\\Controller -->
<g id="edge12" class="edge"><title>\\vidsys\\Http\\Controllers\\Universal\\ProfileController&#45;&gt;\\vidsys\\Http\\Controllers\\Controller</title>
<path fill="none" stroke="black" d="M476.7,-238.136C470.261,-240.822 463.901,-243.782 458,-247 429.449,-262.568 400.438,-285.616 380.168,-303.15"/>
<polygon fill="none" stroke="black" points="377.786,-300.584 372.579,-309.811 382.403,-305.845 377.786,-300.584"/>
</g>
<!-- \\vidsys\\Http\\Controllers\\ResController -->
<g id="node9" class="node"><title>\\vidsys\\Http\\Controllers\\ResController</title>
<polygon fill="none" stroke="black" points="587,-184 483,-184 483,-148 587,-148 587,-184"/>
<text text-anchor="middle" x="535" y="-163.2" font-family="Courier,monospace" font-size="11.00">ResController</text>
</g>
<!-- \\vidsys\\Http\\Controllers\\ResController&#45;&gt;\\vidsys\\Http\\Controllers\\Controller -->
<g id="edge3" class="edge"><title>\\vidsys\\Http\\Controllers\\ResController&#45;&gt;\\vidsys\\Http\\Controllers\\Controller</title>
<path fill="none" stroke="black" d="M482.892,-177.353C474.138,-180.604 465.469,-184.745 458,-190 416.498,-219.2 384.126,-269.777 366.855,-300.92"/>
<polygon fill="none" stroke="black" points="363.668,-299.455 361.986,-309.916 369.824,-302.787 363.668,-299.455"/>
</g>
<!-- \\vidsys\\Http\\Controllers\\OrgController -->
<g id="node10" class="node"><title>\\vidsys\\Http\\Controllers\\OrgController</title>
<polygon fill="none" stroke="black" points="587,-130 483,-130 483,-94 587,-94 587,-130"/>
<text text-anchor="middle" x="535" y="-109.2" font-family="Courier,monospace" font-size="11.00">OrgController</text>
</g>
<!-- \\vidsys\\Http\\Controllers\\OrgController&#45;&gt;\\vidsys\\Http\\Controllers\\Controller -->
<g id="edge5" class="edge"><title>\\vidsys\\Http\\Controllers\\OrgController&#45;&gt;\\vidsys\\Http\\Controllers\\Controller</title>
<path fill="none" stroke="black" d="M482.996,-124.343C474.036,-128.059 465.267,-132.848 458,-139 406.105,-182.936 375.078,-259.327 361.371,-300.244"/>
<polygon fill="none" stroke="black" points="358.014,-299.248 358.257,-309.84 364.672,-301.409 358.014,-299.248"/>
</g>
<!-- \\vidsys\\Http\\Controllers\\HomeController -->
<g id="node11" class="node"><title>\\vidsys\\Http\\Controllers\\HomeController</title>
<polygon fill="none" stroke="black" points="590.5,-76 479.5,-76 479.5,-40 590.5,-40 590.5,-76"/>
<text text-anchor="middle" x="535" y="-55.2" font-family="Courier,monospace" font-size="11.00">HomeController</text>
</g>
<!-- \\vidsys\\Http\\Controllers\\HomeController&#45;&gt;\\vidsys\\Http\\Controllers\\Controller -->
<g id="edge6" class="edge"><title>\\vidsys\\Http\\Controllers\\HomeController&#45;&gt;\\vidsys\\Http\\Controllers\\Controller</title>
<path fill="none" stroke="black" d="M479.356,-71.1519C471.569,-74.7276 464.135,-79.2601 458,-85 394.219,-144.674 367.268,-249.676 357.616,-299.812"/>
<polygon fill="none" stroke="black" points="354.123,-299.456 355.763,-309.923 361.008,-300.718 354.123,-299.456"/>
</g>
<!-- \\Illuminate\\Routing\\Controller -->
<g id="node13" class="node"><title>\\Illuminate\\Routing\\Controller</title>
<ellipse fill="none" stroke="black" cx="119" cy="-328" rx="118.879" ry="18"/>
<text text-anchor="middle" x="119" y="-324.3" font-family="Times,serif" font-size="14.00" fill="gray">\Illuminate\Routing\Controller</text>
</g>
<!-- \\vidsys\\Http\\Controllers\\Controller&#45;&gt;\\Illuminate\\Routing\\Controller -->
<g id="edge9" class="edge"><title>\\vidsys\\Http\\Controllers\\Controller&#45;&gt;\\Illuminate\\Routing\\Controller</title>
<path fill="none" stroke="black" d="M309.968,-328C292.317,-328 270.62,-328 248.277,-328"/>
<polygon fill="none" stroke="black" points="247.979,-324.5 237.979,-328 247.979,-331.5 247.979,-324.5"/>
</g>
</g>
</svg>
